<?xml version="1.0" encoding="utf-8"?>
<!-- Generator: Adobe Illustrator 22.1.0, SVG Export Plug-In . SVG Version: 6.00 Build 0)  -->
<svg xmlns="http://www.w3.org/2000/svg" xmlns:xlink="http://www.w3.org/1999/xlink" x="0px" y="0px"
	 viewBox="0 0 1920 1070.2" style="enable-background:new 0 0 1920 1070.2;" xml:space="preserve">
<style type="text/css">
	.error-404-0{fill:#F0F1F3;}
	.error-404-1{fill:#00C671;}
	.error-404-2{opacity:0.2;}
	.error-404-3{fill:#191C3C;}
	.error-404-4{opacity:8.000000e-02;fill:#F5F7F9;}
	.error-404-5{fill:#1E2022;}
	.error-404-6{fill:#D4DBE3;}
	.error-404-7{fill:#00C9A7;}
	.error-404-8{fill:none;stroke:#191C3C;stroke-width:1.5917;stroke-miterlimit:10;}
	.error-404-9{fill:#7783A0;}
	.error-404-10{fill:#3A3C4E;}
	.error-404-11{fill:#FEC55E;}
	.error-404-12{fill:#DB3F32;}
	.error-404-13{opacity:0.3;fill:#191C3C;}
	.error-404-14{fill:#DE4437;}
	.error-404-15{fill:url(#error404_1_);}
	.error-404-16{fill:url(#error404_2_);}
	.error-404-17{fill:url(#error404_3_);}
	.error-404-18{fill:#FFFFFF;}
	.error-404-19{opacity:0.3;}
	.error-404-20{fill:#41446B;}
	.error-404-21{opacity:0.1;fill:#191C3C;}
	.error-404-22{fill:#D8ED96;}
	.error-404-23{fill:#D4DEE8;}
	.error-404-24{fill:url(#error404_4_);}
	.error-404-25{fill:#D1D3DB;}
	.error-404-26{fill:#377DFF;}
	.error-404-27{fill:#2D1582;}
	.error-404-28{fill:#474963;}
	.error-404-29{fill:#4D5068;}
	.error-404-30{opacity:0.17;fill:#191C3C;}
	.error-404-31{opacity:0.11;}
	.error-404-32{fill:#DAE1E9;}
	.error-404-33{fill:none;stroke:#DAE1E9;stroke-width:1.92;stroke-miterlimit:10;}
	.error-404-34{fill:none;stroke:#DAE1E9;stroke-width:5.76;stroke-miterlimit:10;}
	.error-404-35{fill:#E4EDF7;}
	.error-404-36{opacity:0.3;fill:#DAE1E9;}
	.error-404-37{fill:none;stroke:#DAE1E9;stroke-width:1.8812;stroke-miterlimit:10;}
	.error-404-38{opacity:0.2;fill:#AAB2BA;}
	.error-404-39{fill:#FED17E;}
	.error-404-40{fill:#E0A546;}
	.error-404-41{fill:#19A0FF;}
	.error-404-42{fill:#DD9C3E;}
	.error-404-43{fill:#BF9447;}
	.error-404-44{opacity:0.1;fill:#3A3C4E;}
	.error-404-45{opacity:0.2;fill:#3A3C4E;}
</style>
<rect class="error-404-0" width="1920" height="1070.2"/>


<path class="error-404-6" d="M0,878.6c0,0,247.7-143.2,566.4-66.4s489.6-78.7,604.8-145.9s493.4-357.9,748.8-175.1v578.7H0V878.6z"/>

<path class="error-404-23" d="M0,840.6c0,0,400.5-248.4,678.9-141.7s654.3,60.3,654.3,60.3v311H0V840.6z"/>

<linearGradient id="error404_4_" gradientUnits="userSpaceOnUse" x1="0" y1="642.7708" x2="1920" y2="642.7708" gradientTransform="matrix(1 0 0 1 0 149.508)">
	<stop  offset="5.250566e-07" style="stop-color:#DAE1E9"/>
	<stop  offset="1" style="stop-color:#F0F1F3"/>
</linearGradient>

<path class="error-404-24" d="M0,654.7c0,0,255.7,194.7,743,19.2c108.3-39.2,215.4-81.4,324.1-119.8c67.2-23.8,139-41.1,210.8-39.2
	c70.7,2.3,139.8,21.9,204.7,49.5c36.9,16.1,72.6,34.9,107.1,55.3c33,19.6,64.1,43,99.8,58c31.9,13.1,65.3,21.1,99.5,25.3
	c25,3.1,50.3,4.6,75.3,5.4c18.4,0.4,37.2,0.4,55.7,0.4v361H0V654.7z"/>

<g>
	<path class="error-404-25" d="M1425.8,799.9l-17.7-0.4l-1.5-1.2h-0.4l88.3-49.9l4.6-1.9h-0.8c1.5-0.4,2.7-0.8,3.5-1.2l16.1-8.4l0,0l5-2.7
		l21.9-6.9l-17.3,11.9c-0.4,0.8,0.8,1.2,2.7,1.5c2.7,0.4,8.4,0,12.3-1.2l43.4-10.8h-1.5l2.7-0.8l43.4-5.4c-0.8-0.4-3.5-0.4-6.5-0.4
		l-8.4,1.2h-1.9c-1.5,0-3.8,0-5.8,0.4l-4.2,0.4l-12.3,0.8c-3.5,0.4-6.9,0.8-9.6,1.5l-5.8,1.5h0.8h-1.9l-19.6,4.2l16.9-8.8
		c3.1-1.5,2.7-3.1-0.8-3.8l-19.6-4.2c5-1.2,10-2.7,12.7-3.5c1.5-0.4,1.9-0.8,2.7-1.5l3.1-0.4c0,0,6.9-1.5,7.3-2.3v-0.4
		c2.7-1.2,4.6-1.9,7.3-3.1c0.8-0.4,1.9-0.8,2.3-1.2s0.4-0.4,0.4-0.8c0-0.4,0.4-1.2,0.4-1.5c0.4-0.8-1.9-0.8-4.2-1.2
		c-2.3-0.4-3.8-0.8-6.5-0.8c-1.9,0-4.2,0-6.1,0.4c-0.8,0-1.9,0.4-2.7,0.4c-1.5,0-2.7,0-3.8,0c-3.1,0-7.3,0.8-10,1.5
		c-0.4,0-0.8,0.4-1.2,0.4c-0.4,0-1.2,0-1.5,0.4c-6.1,1.2-7.7,2.7-9.6,3.8c-0.8,0.4-1.9,0.8-2.3,1.5c-1.5,0-3.1,0.4-3.1,0.4
		c-3.8,1.2-3.5,2.3-3.5,2.3l2.3,0.4c-0.4,0-0.4,0.4-0.8,0.4s-0.8,0.4-1.2,0.4c-1.9,0.8-2.7,1.5-3.1,1.9l0,0l-3.5,1.5l-41.1,4.6
		c-7.3,0.8-14.2,2.3-18.4,3.8l-22.3,8.8l-0.4-4.2h-1.9l0,0l1.2-1.5c0.4-0.8-0.4-1.2-2.7-1.5l-8.8-0.8l-1.9-0.4
		c-1.2-0.4-2.7-0.4-4.6-0.4h-2.7l-4.2-1.2c-1.5-0.4-4.6-0.4-7.3,0.4l20,5.4l-0.8,0.8h-2.3l-5.4,10.8c-0.4,1.2,3.1,1.5,8.1,1.2
		c3.1-0.4,6.5-0.8,9.6-1.5l26.5-8.8l-5,2.3l0,0l-4.2,1.9l-2.3,0.8l0,0l-15,6.1l-8.4,3.5c-0.8,0.4-1.5,0.8-1.2,1.2l0,0l-3.5,1.5
		l-76.8,27.6l-51.1,22.7h-2.3l-5.8,1.2l-20.4,0.4c-5.4,0.4-6.5,0.8-10.4,1.9l-1.2,0.4h39.2l5-0.8l-1.9,0.8h13.1l8.1-3.5h-0.8
		l23.4-9.6l0,0l25.3-10.4l67.2-20.4l-0.4,0.4l-0.4,0.4l0,0l-25.7,20.4l-31.1,19.2h-0.4l-8.1,3.5h13.1l1.9-0.8l0.8,0.8h39.2l0.4-0.4
		C1429.6,800.3,1429.2,800.3,1425.8,799.9z"/>
</g>

<g>
	<polygon class="error-404-26" points="1305.6,565.6 1288.3,687.7 1287.9,787.2 1314,787.2 1319.4,700.4 1344,612.5 1366.3,702.3
		1379.7,787.2 1407.4,787.2 1380.5,565.6 	"/>
	<path id="XMLID_16_" class="error-404-27" d="M1286.4,786l-4.2,4.2l-21.1,2.3c-5,1.5-5.8,2.7-7.3,7.7l-0.4,1.2h43.8l3.1-3.8v3.8h14.6v-15.7
		h-11.5L1286.4,786L1286.4,786z"/>
	<path id="XMLID_15_" class="error-404-27" d="M1407.7,786l4.2,4.2l21.1,2.3c5,1.5,5.8,2.7,7.3,7.7l0.4,1.2H1397l-3.1-3.8v3.8h-14.6v-15.7
		h11.5L1407.7,786L1407.7,786z"/>
	<path class="error-404-28" d="M1333.2,425.1l-29.6,16.5l2.7,69.9l-2.3,45.7c-0.4,4.6,3.5,8.4,8.1,8.4h61.1c5,0,8.4-4.2,8.1-8.8l-3.8-47.2
		l15-66l-33-18.4L1333.2,425.1L1333.2,425.1z"/>
	<polygon class="error-404-11" points="1359.4,426.2 1346.3,450 1333.2,426.2 1333.2,409 1359.4,409 	"/>
	<g>
		<path class="error-404-29" d="M1370.9,373.6c-0.4-1.2-0.8-2.3-1.2-3.1c-1.2-1.9-2.3-4.2-3.1-6.1c-1.9-3.8-3.8-3.1-7.3-4.2
			c-3.1-1.2-6.1-3.1-9.6-3.5c-2.3,0-4.2,0.8-6.1,1.5c-0.8,0.4-1.5,0.8-2.3,1.2c-1.5,0.4-3.1,0-4.6,0c-3.5,0-6.9,2.7-7.7,6.1
			c0,0.4-0.4,1.2-0.4,1.5c-0.4,0.4-0.8,0.8-1.2,1.2c-4.6,4.2-1.9,11.5-1.2,16.9c0.4,3.1,0,6.1,2.7,8.4l-1.2-0.4
			c3.1,3.1,6.9,4.6,11.1,5.4s8.4,0.8,12.7,0.8c5,0,10,0,15,0c0.8,0,1.9,0,2.7-0.8s1.2-1.9,1.2-3.1c0.8-5.8,0.4-11.5,0.8-17.3
			C1370.9,376.3,1371.3,374.8,1370.9,373.6z"/>
	</g>
	<path class="error-404-13" d="M1333.2,418.9l3.8,6.5c2.3,4.2,6.9,6.9,11.9,6.9c4.2,0,8.4-1.9,10.8-5.4v-17.7h-26.5L1333.2,418.9
		L1333.2,418.9z"/>
	<path class="error-404-11" d="M1330.9,382.5v20c0,4.6,1.2,8.8,3.5,13.1l3.8,6.5c2.3,4.2,6.9,6.9,11.9,6.9l0,0c4.6,0,9.2-2.3,11.5-6.5
		l0.8-1.2c2.3-3.8,3.8-8.8,3.8-13.4v-19.2V371h-34.6L1330.9,382.5z"/>
	<path class="error-404-11" d="M1331.3,405.5l-3.8-2.3c0,0-4.2-6.1-2.3-10.4c0,0,1.5-3.5,4.2-1.9l3.8,3.8L1331.3,405.5z"/>
	<path class="error-404-11" d="M1365.1,405.5l3.8-2.3c0,0,4.2-6.1,2.3-10.4c0,0-1.5-3.5-4.2-1.9l-3.8,3.8L1365.1,405.5z"/>
	<g>
		<path class="error-404-29" d="M1329.8,385.9c0.4,3.1,0.8,6.1,0.8,9.6c0,1.2-0.4,5,1.9,3.8c0.8-0.4,1.2-1.2,1.2-1.9
			c0.4-3.1-2.3-5.8-0.8-8.4c1.2-1.9,3.5-3.5,3.8-5.8c0.4-1.5-0.4-3.5-0.8-5c0-1.2,0-2.7,0.8-3.8c0.8-1.2,2.3-1.5,3.5-1.2
			s1.9,1.5,3.1,2.3c2.3,1.9,5.4,2.7,8.1,1.5c1.5-0.8,3.1-1.9,4.6-2.7c1.5-1.2,3.5-1.5,5-1.2c2.7,0.8,3.5,3.5,4.2,6.1
			c0.4,2.7,1.2,5.8,0.8,8.4c-0.4,2.3-1.5,4.2-1.9,6.5c0,0.4-0.4,1.2-0.4,1.5c0,1.2,0.8,1.9,1.2,2.7c0,0,0,0.4,0.4,0.4s0.4,0,0.8-0.4
			c1.5-1.2,1.9-3.5,2.3-5.4c0.4-2.7,1.5-4.2,0.8-6.9c-1.2-5.4,0.4-10.8-0.8-16.1c0-0.4-0.4-1.2-0.4-1.5c-0.4-0.4-1.2-0.8-1.5-1.2
			c-7.7-2.7-15.7-2.3-23.8-1.9c-2.7,0-5.8,0.4-8.1,1.9c-2.7,1.9-4.2,5-5,8.4C1329,379,1329.4,382.5,1329.8,385.9z"/>
	</g>
	<path class="error-404-11" d="M1260.7,484.6l-1.2-3.5l-35.3-22.7l0,0c1.9-1.9,5.4-2.3,7.7-0.8l6.9,4.2l2.7-0.4c1.9-0.4,4.2,0,6.1,1.2
		l3.5,2.3l11.9,3.5c3.1,0.8,5.8,3.5,6.9,6.5l2.7,6.5L1260.7,484.6z"/>
	<path class="error-404-11" d="M1431.9,484.6l1.2-3.5l35.3-22.7l0,0c-1.9-1.9-5.4-2.3-7.7-0.8l-6.9,4.2l-2.7-0.4c-1.9-0.4-4.2,0-6.1,1.2
		l-3.5,2.3l-11.9,3.5c-3.1,0.8-5.8,3.5-6.9,6.5l-2.7,6.5L1431.9,484.6z"/>
	<path class="error-404-28" d="M1333.2,425.1l-34.9,19.6c-6.1,3.5-10.4,9.6-10.8,16.9l-3.1,38l-11.1-18.4l-15,4.6l21.1,47.2
		c1.9,4.2,7.3,6.1,11.5,4.2c2.7-1.5,5.4-3.5,6.9-6.9l11.1-56.1l24.2-35.7v-13.4H1333.2z"/>
	<path class="error-404-28" d="M1359.4,425.1l34.9,19.6c6.1,3.5,10.4,9.6,10.8,16.9l3.1,38l11.1-18.4l15,4.6l-21.1,47.2
		c-1.9,4.2-7.3,6.1-11.5,4.2c-2.7-1.5-5.4-3.5-6.9-6.9l-11.1-56.1l-24.2-35.7v-13.4H1359.4z"/>
	<rect x="1305.2" y="561.8" class="error-404-27" width="76" height="11.5"/>
	<rect x="1335.9" y="561.8" class="error-404-11" width="13.1" height="11.5"/>
	<path class="error-404-30" d="M1377.8,509.6l6.9-30.7c-2.3,3.5-4.2,7.3-6.1,11.1c-0.8,1.5,0,3.1,1.2,3.8c-1.5,3.5-7.3,9.2-9.6,11.5
		c-1.9,1.9,3.5,2.3,5.8,1.5c0,0,0,0,0.4,0c-1.5,2.7-3.1,5.4-5,7.7c-1.2,1.5-4.2,3.8-2.3,3.5c1.5-0.4,6.5,0.8,8.1,0.4
		c-0.8,1.9-1.2,3.5-1.9,5.4c-0.8,1.9,0.4,3.8,1.9,4.2c-1.2,0,0.4,10.8,0.8,11.9c0.8,3.5,1.5,5.8,3.1,8.1l-1.5-26.5v-0.4
		L1377.8,509.6z"/>
	<path class="error-404-30" d="M1312.9,516.5c-6.1-3.1-7.7-6.1-5.4-9.2c2.3,0.8,5.8,0,8.1,0.8c1.5,0.4,0.8-1.5-4.2-1.9
		c0.8,0-5.4-7.7-3.1-7.7c1.2,0,1.9-1.5,1.5-2.7c-2.7-4.6-3.1-11.1-4.6-16.5l0.8,23.4c0.4,0.4,1.2,0.8,1.5,1.5
		c-0.4,0-1.2-0.4-1.5-0.4l0.4,8.1v2.7c0.4,0.4,0.4,0.8,0.8,1.2c-0.4,0-0.4,0-0.8,0l-1.5,35.3c0.4-0.4,0.8-0.8,0.8-1.2
		c0-7.3,2.3-13.4,3.1-20.4c0.4-2.3-1.5-10.8,3.5-9.6C1313.3,519.9,1314.4,517.2,1312.9,516.5z"/>
	<polygon class="error-404-18" points="1333.2,425.1 1325.6,429.7 1334.4,462 1346.3,450 	"/>
	<polygon class="error-404-18" points="1359.4,425.1 1367.4,429.7 1358.2,462 1346.3,450 	"/>
	<circle class="error-404-3" cx="1346.3" cy="461.6" r="1.5"/>
	<path class="error-404-3" d="M1347.1,479.2c0,0.8-0.8,1.5-1.5,1.5c-0.8,0-1.5-0.8-1.5-1.5c0-0.8,0.8-1.5,1.5-1.5
		C1346.3,477.7,1347.1,478.5,1347.1,479.2z"/>
	<path class="error-404-3" d="M1346.3,496.5c0,0.8-0.8,1.5-1.5,1.5c-0.8,0-1.5-0.8-1.5-1.5c0-0.8,0.8-1.5,1.5-1.5
		C1345.9,495.4,1346.3,495.7,1346.3,496.5z"/>
	<circle class="error-404-3" cx="1344.4" cy="514.2" r="1.5"/>
	<circle class="error-404-3" cx="1343.6" cy="531.8" r="1.5"/>
	<path class="error-404-3" d="M1344.4,549.1c0,0.8-0.8,1.5-1.5,1.5c-0.8,0-1.5-0.8-1.5-1.5s0.8-1.5,1.5-1.5
		C1344,548,1344.4,548.4,1344.4,549.1z"/>
	<g class="error-404-31">
		<g>
			<path class="error-404-3" d="M1319.4,700.4l-2.7,44.5c-0.4,0.4-0.8,0.4-1.2,0.8c-0.4-13.8-2.7-27.6-6.5-40.7c2.3-0.8,4.6-2.3,6.1-4.2
				c-1.5,0-3.1-0.4-4.6-0.4c1.2-0.8,2.3-1.9,2.7-3.1c-3.5,0-6.9,0-10.4,0c9.6-2.3,16.9-11.5,16.5-21.1c-1.2,0.4-2.7,0-3.8-0.8
				c3.5-5.4,6.9-10.8,10.4-16.5c0.8-0.8,1.2-1.9,0.8-3.1c-1.9,1.5-3.8,2.7-6.1,3.1c2.7-3.1,5.4-6.5,6.5-10.4
				c1.5-4.6,1.2-9.6,1.9-14.2c1.5-8.8,6.9-16.5,14.6-20.7L1319.4,700.4z M1344.4,615.2c0-0.8,0-1.2,0-1.9l-0.4-0.4l0,0L1344.4,615.2
				z"/>
		</g>
	</g>
	<g class="error-404-31">
		<path class="error-404-3" d="M1406.6,780.7l-25.3-210.8c-0.4,0-0.8,0-0.8,0l-0.4,1.2c-1.2,13.8-1.2,27.6,1.2,41.1
			c1.2,8.1,3.1,16.1,1.2,24.2c-0.4,2.7-1.5,4.6-2.7,7.3c-1.2,3.1-1.5,6.9-1.9,10c-0.8,3.5-1.2,6.5-1.5,10c-0.4,3.5-1.2,6.9-1.2,10.8
			c0,0.4,13.4-2.7,15-4.2c-1.2,6.1-3.5,12.7-5.8,18.4c1.5-3.1,3.5-6.1,6.1-8.4c-2.3,4.2-3.5,8.8-4.2,13.8c2.7-0.4,5.4-0.8,8.4-0.8
			c-2.3,5.4-4.6,10.4-7.3,15.7c3.1-1.5,5.8-3.1,8.8-4.6c-0.8,13.1-1.5,26.1-2.3,38.8c-0.4,5-0.4,10,1.5,14.6
			c1.5,3.5,3.8,6.1,5.8,9.2c3.1,5.4,4.6,11.9,3.8,18C1405.4,783.7,1405.8,782.2,1406.6,780.7z"/>
	</g>
	<g>
		<path class="error-404-29" d="M1340.9,410.9c-0.4,1.2-0.8,1.9-1.2,3.1c-0.4,0.8-1.5,1.9-2.7,1.5s-1.5-1.9-1.5-3.1c-0.4-3.5,0.4-6.5-0.8-10
			c-0.4-0.8-0.8-1.5-0.8-2.7c0-0.8,0-1.5,0-2.7c0-0.8-0.8-1.5-1.5-1.5c-0.8,0-1.5,0.8-1.5,1.5s0,1.5,0,2.3c0.8,3.8,1.2,7.3,0.8,10.8
			c-0.4,3.8,1.2,7.3,2.3,10.8c0.4,1.2,0.8,2.3,1.5,3.5c1.5,2.7,4.6,4.6,7.7,5.4s6.5,0.8,9.6,0.8c1.9,0,4.2,0,6.1-0.8
			c5.8-2.3,7.3-13.1,8.1-18.4c0.4-2.3-0.4-4.2-0.4-6.5c-0.4-2.7,0.8-5.8,1.2-8.4c0-0.4,0-0.8-0.4-1.2s-1.2-0.4-1.2-0.8
			c-0.8,0.8-1.9,1.9-2.3,3.1c0,0.4,0,1.2,0,1.5c0,2.3,0,4.6-0.4,6.5c-0.8,2.7-1.5,5-1.9,7.7c0,1.2-0.4,2.7-1.9,3.1
			c-0.8,0.4-1.9-0.4-2.3-1.5c-0.4-0.8-0.4-1.9-0.4-3.1s0-1.9-0.8-2.7c-0.8-1.2-2.3-1.2-3.8-1.2
			C1349,407.8,1343.2,405.9,1340.9,410.9z"/>
	</g>
</g>

<path class="error-404-25" d="M1114.8,627.1c0,0-0.4,0-0.8,0c-1.5,0-2.3-0.8-2.7-1.5c0-0.8,0.8-1.9,1.5-3.1c1.2-1.2,2.3-2.3,3.8-3.8
	c0.8-0.4,1.2-1.2,1.9-1.5c0.4-0.4,0.4-0.8,0.8-1.2c1.2-1.5,3.5-3.1,4.6-5c0.4-0.4,0.4-0.8,0.4-1.2c-0.4-0.4-1.5-0.4-2.7-0.4
	c-1.2,0.4-1.9,0.8-2.7,1.2v-0.4c-0.4,0-0.8-0.4-1.5,0h-0.4c-0.4,0-0.8,0.4-0.8,0.4c-0.4,0-0.4-0.4-0.8-0.4c-0.8-0.4-1.9-0.4-2.7-0.4
	c-3.1-0.4-6.5-0.4-10.4,0.4c-0.4,0-0.8,0-1.2,0l0.8-0.8c0.4-0.4,0-0.8-0.8-0.4h-1.2c0,0-0.4,0-0.8,0l-15.7,1.9
	c-0.4,0-1.2,0.4-1.2,0.4l-4.2,3.8c-0.4,0.4,0,0.8,0.8,0.4l9.2,0.4l0.8-0.4l-3.8,3.8c-0.8,0.8-0.4,1.2,1.2,1.2h4.2l-2.3,2.3l-9.2,0.8
	l-11.9,0.8l-0.4,0.4l0,0l-13.4-0.4l-5.4-10.4l1.5-2.3l-0.4-2.3l1.5-1.9l-0.4-1.9c-1.2,0.4-1.5,1.2-1.5,1.5v0.4l-1.5,1.9l0,0h-0.4
	v-0.8l-3.5-1.9l-0.4,0.4c-0.4,0.4-0.4,0.4,0,0.8l2.3,1.5v0.4l-0.4,0.4l-0.8-0.8l-4.6-0.8l-0.8,0.8l3.1,0.4l1.5,0.8l-0.8,0.8
	l-5.4-0.8v0.4c0,0,0,0,0.4,0.4l3.8,0.8l0.4,2.3l1.2,1.2l0.8,11.5l17.7,1.5l0,0l0,0l-0.4,0.4l7.3,1.5l-4.2,3.8
	c-1.5,1.5-2.3,2.7-3.1,4.2l-0.4,1.5l-18.4,16.9h0.4l-1.2,0.8l0,0l-26.1,17.3l-5,17.7l0,0l-1.2,1.2l-10,1.9l0,0l-8.8,1.5
	c0,0,0,0-0.4,0c-0.4,0.4-2.3,2.3,5,1.9c0.8,0,1.5,0.4,2.7,0.4c6.1,0,18.8-0.4,18.8-0.4c1.2-0.4,2.3-1.2,2.7-1.5l0.8-0.8l0,0
	c0,0,0-0.4,0.4-0.4l0,0l0,0l0,0c0-0.4,0-0.4-0.4-0.8l3.5-3.5h-0.8h0.8c0,0,20.4-14.6,22.3-20.7l15.7-12.3l0,0l0.8-0.8l0,0l-0.4,1.2
	c3.5-1.5,6.5-3.1,8.4-5l10.4-10.4c0.8,0,1.5-0.4,2.3-0.4l3.1-1.2l10.8-8.4h1.2l9.2-8.4c0.8-0.8,0.4-1.2-0.4-1.2l-8.4-2.3l3.1-2.7
	c0.4,0,1.2-0.4,1.9-0.4c1.5-0.4,3.5-1.2,5-1.5c-0.8,0.4-1.5,0.8-1.9,1.2c-1.5,1.2-3.1,2.3-2.7,3.5c0,0.4,0.4,0.8,0.8,0.8
	c1.2,0.8,2.7,1.2,4.2,1.5l0,0c0,0,0,0,0.4,0l0,0l0,0c0-0.4,0-0.8,0.4-1.2c0.8,0.4,1.5,0.8,2.3,1.2
	C1111.7,627.5,1112.8,627.5,1114.8,627.1C1114.8,627.5,1114.4,627.1,1114.8,627.1C1114.4,627.1,1114.8,627.1,1114.8,627.1z
	 M1084.4,627.8L1084.4,627.8L1084.4,627.8L1084.4,627.8z M1033,675.5l-0.4,1.2l0,0v0.4l-3.8,4.2l0,0l-1.9,2.3
	c0.8-1.5,0.8-3.1-0.4-4.2L1033,675.5z"/>

<g>
	<g>
		<path class="error-404-40" d="M1009.5,683.5l-0.8,5.4l-14.2,6.9l-10.8,2.3c0,0,0.8,4.6,9.2,5s25-0.8,25-0.8l0,0c1.2-1.2,1.5-2.7,1.5-4.2
			v-1.9c0-1.2-0.8-2.3-1.9-2.7l0,0v-8.8L1009.5,683.5z"/>
		<path class="error-404-41" d="M1019.9,696.2c0-0.4,0-0.8-0.4-1.2c-0.8,0.4-2.3,2.7-3.1,2.7c-5.4,0-11.5,0.8-16.1,0.4
			c-4.6,0-7.3-0.4-8.4-1.5l-8.1,1.9c0,0,0.8,4.6,9.2,5s25-0.8,25-0.8c1.2-1.2,1.5-2.7,1.5-4.2L1019.9,696.2L1019.9,696.2z"/>
		<path class="error-404-11" d="M1000.3,685.4v2.7l-21.1,8.8c0,0-1.2,6.9,11.9,5.4l23-4.6c0,0,0.8-2.7,1.2-5c0.4-1.5-0.4-3.1-1.5-3.8l0,0
			l-4.6-4.6L1000.3,685.4z"/>
		<path class="error-404-26" d="M1015.3,690.4c-1.2,1.9-2.7,3.1-5,3.8l-8.8,2.7c-11.1,1.2-12.3-2.7-12.3-4.2l-10,4.2c0,0-1.2,6.9,11.9,5.4
			l23-4.6c0,0,0.8-2.7,1.2-5C1016.1,692,1015.7,691.2,1015.3,690.4z"/>
		<path class="error-404-10" d="M1021.4,593.7l-3.8,37.6c6.9,16.1,0.4,53.4,0.4,53.4h-8.4l-5-48l-5-13.4L1021.4,593.7z"/>
		<g>
			<path class="error-404-13" d="M1003.8,635.5l13.4-32.6l3.1-2.7c0,0,0,0,0.4-0.4l0.8-6.1l-22.3,29.6L1003.8,635.5z"/>
			<path class="error-404-13" d="M1009.2,684.7h2.3c0,0,1.9-23.8-6.5-37.6L1009.2,684.7z"/>
		</g>
		<path class="error-404-29" d="M994.6,580.6l-13.1,59.9l19.2,44.5l9.2-0.8c0,0,2.3-31.1-10.4-42.6l15.7-38.8l3.1-2.7
			c2.7-2.3,4.6-5.8,4.6-9.2v-13.4L994.6,580.6z"/>
		<g>
			<path class="error-404-42" d="M1036.4,506.1c-1.5-2.3-1.9-5-2.3-7.3c-0.4-3.1-0.4-6.1,0-9.2c0-1.2,0.4-2.7,0-3.8c0-0.8-0.4-1.9-0.8-2.7
				c-0.8-3.8-0.4-8.4-1.2-12.3c0-0.8-0.4-1.9-1.2-2.7c-1.2-1.2-2.7-1.2-3.8-0.8c-1.2,0.8-1.9,1.9-2.3,3.5v-0.4
				c-1.9,5-0.8,10.4-1.9,15.7c-0.8,3.1-1.5,5.8-2.3,8.8c-0.4,3.1-0.4,6.5,1.5,8.8c0.8,0.8,1.5,1.5,2.7,2.3c2.7,1.9,5.4,3.1,8.4,4.2
				c-0.8-0.8-1.5-1.9-1.5-3.1c1.5,1.2,3.1,2.3,5,3.1c1.9,0.8,3.8,0.8,5.8,0C1040.6,510,1038,508.4,1036.4,506.1z"/>
		</g>
		<g>
			<g>
				<path class="error-404-43" d="M1028,506.9c-0.8-0.8-1.9-1.2-2.7-2.3c-1.9-2.3-2.3-5.8-1.5-8.8c0.4-3.1,1.5-5.8,2.3-8.8
					c0.8-5,0-14.6,0-14.6c0-1.5-0.8-1.9-0.8-1.9c-1.9,5-0.8,10.4-1.9,15.7c-0.8,3.1-1.5,5.8-2.3,8.8c-0.4,3.1-0.4,6.5,1.5,8.8
					c0.8,0.8,1.5,1.5,2.7,2.3c2.7,1.9,5.4,3.1,8.4,4.2c0,0,0,0-0.4-0.4C1031.4,508.8,1029.5,508,1028,506.9z"/>
			</g>
			<g>
				<path class="error-404-43" d="M1042.6,510h0.4c-0.4,0-0.8,0-1.2,0C1042.2,510,1042.6,510,1042.6,510z"/>
			</g>
			<g>
				<path class="error-404-43" d="M1034.9,507.6c0,0.4,0,0.8,0.4,1.2c0.8,0.4,1.5,0.8,2.3,1.2c0.8,0,1.2,0.4,1.5,0.4
					C1037.2,509.6,1036,508.8,1034.9,507.6z"/>
			</g>
		</g>
		<g>
			<path class="error-404-42" d="M1024.9,471.2c-0.8,0.4-1.5,0.4-2.3,0s-1.2-0.8-1.9-1.2c-1.2-0.8-3.1-0.8-4.6-1.2c-5-0.8-10.4-1.2-14.2,1.5
				h-0.4c3.8,9.2,8.4,18.4,13.1,27.6c0.8-0.8,1.9-1.5,2.7-2.3c3.8-3.5,8.1-7.3,8.8-12.3C1026.4,479.2,1024.5,475.4,1024.9,471.2z"/>
		</g>
		<rect x="1002.2" y="491.9" class="error-404-11" width="13.4" height="26.9"/>
		<path class="error-404-13" d="M1007.6,499.6l-5-1.2v-6.9h13.4v1.2C1016.1,497.3,1011.8,500.7,1007.6,499.6z"/>
		<path class="error-404-11" d="M993.4,483.8v11.9c0,1.9,1.5,3.1,3.1,3.1h8.1c5,0,8.8-3.8,8.8-8.8v-4.6v-5.8c0-1.5-0.8-3.1-1.9-3.8l-5.4-4.2
			c-1.5-1.2-3.5-1.2-5-0.4C998.8,472.3,995.7,475.8,993.4,483.8z"/>
		<g>
			<path class="error-404-28" d="M1000.7,470l5,2.7c2.3,1.2,3.8,3.1,3.8,5.8v1.9l-12.3-2.7L1000.7,470z"/>
			<path class="error-404-28" d="M979.6,485.4l13.1,1.2l1.2-1.2l5,0.8c0,0,5.8,1.9,11.9-3.1l1.2-4.2l-15.4-7.7L979.6,485.4z"/>
			<path class="error-404-28" d="M982.3,483.1l18.4-5c0.8,0,1.2-0.8,1.2-1.2v-7.7c0-0.8-0.8-1.5-1.9-1.2l-18.4,5c-0.8,0-1.2,0.8-1.2,1.2v7.7
				C980.4,482.3,981.1,483.1,982.3,483.1z"/>
			<path class="error-404-3" d="M1000.7,478.1l23.8,11.5c0,0,0.4,0,0.4-0.4v-4.6l-24.2-11.9V478.1L1000.7,478.1z"/>
			<path class="error-404-28" d="M1022.6,488.8c0,0,0.4,0,0.4-0.4v-4.6l1.5,0.8v4.6c0,0.4-0.4,0.4-0.4,0.4L1022.6,488.8z"/>
			<path class="error-404-28" d="M1019.5,487.3c0,0,0.4,0,0.4-0.4v-4.6l1.5,0.8v4.6c0,0.4-0.4,0.4-0.4,0.4L1019.5,487.3z"/>
			<path class="error-404-28" d="M1016.1,485.8c0,0,0.4,0,0.4-0.4v-4.6l1.5,0.8v4.6c0,0.4-0.4,0.4-0.4,0.4L1016.1,485.8z"/>
			<path class="error-404-28" d="M1012.6,483.8c0,0,0.4,0,0.4-0.4v-4.6l1.5,0.8v4.6c0,0.4-0.4,0.4-0.4,0.4L1012.6,483.8z"/>
			<path class="error-404-28" d="M1009.2,482.3c0,0,0.4,0,0.4-0.4v-4.6l1.5,0.8v4.6c0,0.4-0.4,0.4-0.4,0.4L1009.2,482.3z"/>
			<path class="error-404-28" d="M1005.7,480.8c0,0,0.4,0,0.4-0.4v-4.2l1.5,0.8v4.6c0,0.4-0.4,0.4-0.4,0.4L1005.7,480.8z"/>
			<path class="error-404-28" d="M1002.2,478.8c0,0,0.4,0,0.4-0.4v-4.6l1.5,0.8v4.6c0,0.4-0.4,0.4-0.4,0.4L1002.2,478.8z"/>
			<path class="error-404-3" d="M979.6,485.4l18.4-5c0.8,0,1.2-0.8,1.2-1.2v-10.4c0-0.8-0.8-1.5-1.9-1.2l-18.4,5c-0.8,0-1.2,0.8-1.2,1.2
				v10.4C978,485,978.8,485.8,979.6,485.4z"/>
			<ellipse class="error-404-28" cx="987.6" cy="476.5" rx="1.2" ry="1.9"/>
		</g>
		<path class="error-404-11" d="M1013.8,485c0,0,3.1-2.7,4.6,0v4.2c0,1.5-0.8,3.1-2.3,3.8c-0.8,0.4-1.5,0.4-2.7,0L1013.8,485z"/>
		<path class="error-404-3" d="M1024.9,474.6l-2.7-2.7c-0.8-0.8-0.4-1.5,0-1.9l0.4-0.4c0.8-0.8,1.5-0.4,1.9,0l2.7,2.7c0.8,0.8,0.4,1.5,0,1.9
			l-0.4,0.4C1026.4,475,1025.7,475,1024.9,474.6z"/>
		<path class="error-404-13" d="M1019.5,598.7c1.9-1.9,3.1-5,3.1-7.7v-13.4l-28,3.1l-3.5,15.4v1.5c13.4,3.1,23.8-10.4,23.8-10.4
			L1019.5,598.7z"/>
		<path class="error-404-26" d="M987.6,509.2v26.9c0,3.5,0.8,6.9,1.9,10.4l1.5,3.8v43.4c13.4,3.1,23.8-10.4,23.8-10.4l6.9,17.7l0,0
			c2.7-3.8,4.2-8.4,3.8-12.7l-1.9-39.6l0.8-39.6l-8.4,1.9l-1.2,1.2c-3.5,3.8-9.6,3.5-12.7-1.2l0,0L987.6,509.2z"/>
		<path class="error-404-11" d="M923.5,476.9l-8.1-1.5l0.8,1.2c0,0.4,0.4,0.4,0.8,0.8l6.5,1.9l3.8,5.8l3.5,3.1l18.4,30l26.1,3.8v-13.1
			l-19.2-1.2l-22.3-26.1l-0.8-5.4l-3.5-5.4l-1.2-5.4l-3.8-5c-0.8,1.2-0.8,2.7,0.4,3.8l0.8,1.2l1.2,5l0,0l-0.8-0.4l-0.8-1.5l-7.3-4.6
			v1.2c0,0.8,0.4,1.2,0.8,1.9l5.4,4.2l0.4,1.2l-0.4,0.8l-2.3-1.9l-6.9-1.5v1.9l5,1.2l3.5,2.3"/>
		<path class="error-404-13" d="M933.1,476.2L933.1,476.2L933.1,476.2l-2.7-0.8c-0.8,0-1.2,0-1.5,0.4l-2.3,1.9v0.4l2.3-1.5
			c0.4-0.4,1.2-0.4,1.5-0.4H933.1L933.1,476.2z"/>
		<polygon class="error-404-13" points="972.7,521.1 975.7,521.5 975.7,508.8 974.6,508.8 		"/>
		<polygon class="error-404-26" points="1002.2,504.2 991.1,506.1 975.7,507.6 975.7,522.6 987.6,526.5 1002.2,511.1 		"/>
		<path class="error-404-44" d="M1023.7,548.7v-1.5c-0.4-0.8-0.8-1.2-1.2-1.5c0.4-0.4,0.8-0.8,1.2-0.8v-6.5c-0.4,0-0.8,0-0.8-0.4
			c0.4-0.8,0.4-1.5-0.4-2.3l0,0c0.4-0.4,0.8-0.8,1.5-0.8v-3.1c-0.4-0.4-1.2-0.4-1.9,0c-1.2,0.8-2.7,1.5-3.8,2.3
			c-1.2,0.8-1.2,2.3,0,3.1l0,0c-1.2,0.8-1.2,2.7,0.4,3.1c1.2,0.4,2.7,0.8,3.8,1.2c-1.2,0.8-3.1,1.5-3.8,2.3
			c-0.8,0.8-0.8,1.5-0.4,2.3c0,0.4,0.8,1.2,1.2,1.5c1.5,4.2,0,3.5,0.4,6.5c0,1.2,0.4,2.3,0.8,3.5c-1.9-1.2,3.1,1.2,1.9-1.2
			C1021.4,554.1,1023.7,548.7,1023.7,548.7z"/>
		<path class="error-404-45" d="M1022.6,537.2l-1.5,13.4l-11.5-6.1l-0.8-7.7l-3.1-3.1l-1.2-4.6l-4.6-5.4l0,0c-0.8,1.2-0.4,2.7,0.4,3.8
			l1.5,2.7v6.5l-1.2,0.4l-3.8-5.4l0,0c-1.2,1.2-1.2,2.7-0.8,4.2l8.4,13.4l20,14.6l0,0l-0.8-15v-11.5h-1.2L1022.6,537.2L1022.6,537.2
			z"/>
		<path class="error-404-11" d="M1031.4,535.3l-2.3,21.5l-2.3,3.1c-1.2,1.5-3.1,1.9-4.6,0.8l-17.7-13.8l-8.4-13.4c-0.8-1.2-0.8-3.1,0.8-4.2
			l0,0l3.8,5.4l1.2-0.4v-6.5l-2.3-3.5c-0.8-1.2-0.8-2.3,0-3.1l0.4-0.4l4.6,6.1l1.2,4.6l3.1,3.1l0.8,7.7l11.5,6.1l1.5-13.4
			L1031.4,535.3L1031.4,535.3z"/>
		<polygon class="error-404-13" points="1031.4,535.3 1022.6,535.3 1022.6,537.2 1031,537.2 		"/>
		<path class="error-404-26" d="M1016.1,504.2l15,6.1c1.2,0.8,2.3,1.9,2.3,3.1v21.5h-11.9v-9.6l-5-14.6v-6.5L1016.1,504.2L1016.1,504.2z"/>
	</g>
</g>
</svg>
